<?xml version="1.0" encoding="utf-8"?>
<!-- Generator: Adobe Illustrator 23.0.0, SVG Export Plug-In . SVG Version: 6.00 Build 0)  -->
<svg version="1.1" id="图层_1" xmlns="http://www.w3.org/2000/svg" xmlns:xlink="http://www.w3.org/1999/xlink" x="0px" y="0px"
	 viewBox="0 0 300 300" style="enable-background:new 0 0 300 300;" xml:space="preserve">
<style type="text/css">
	.st0{fill:#FBE3C0;}
	.st1{fill:#57B894;}
	.st2{fill:#2F2E41;}
	.st3{fill:#9362AC;}
	.st4{fill:#F86D70;}
	.st5{fill:#424242;}
	.st6{fill:#DCDDDD;}
	.st7{fill:#606060;}
	.st8{fill:#F5A800;}
	.st9{fill:#545E60;}
	.st10{fill:#A6AAB2;}
	.st11{fill:#1C0D3A;}
	.st12{fill:#FBBEBE;}
	.st13{fill:#505ED0;}
	.st14{fill:#FFFFFF;}
	.st15{opacity:0.1;enable-background:new    ;}
	.st16{fill:#FFB338;}
	.st17{fill:#F0E4ED;}
	.st18{fill:none;stroke:#2F2E41;stroke-width:3;stroke-miterlimit:10;}
	.st19{fill:#7C8189;}
	.st20{fill:none;}
	.st21{fill:#F56A56;}
	.st22{fill:#FFFAEC;}
	.st23{fill:#605D55;}
	.st24{opacity:0.8;fill:#1C0D3A;}
	.st25{fill:#F7F8F8;}
	.st26{fill:#AD9A85;}
	.st27{fill:#7D6E5A;}
	.st28{clip-path:url(#SVGID_2_);}
	.st29{fill:#DB2D43;stroke:#F7F8F8;stroke-width:4;stroke-miterlimit:10;}
	.st30{fill:#87E5DA;stroke:#F7F8F8;stroke-width:4;stroke-miterlimit:10;}
	.st31{fill:#F7AA00;stroke:#F7F8F8;stroke-width:4;stroke-miterlimit:10;}
	.st32{fill:none;stroke:#F7F8F8;stroke-width:4;stroke-linecap:round;stroke-linejoin:round;stroke-miterlimit:10;}
	.st33{fill:#C7F2E3;stroke:#F7F8F8;stroke-width:4;stroke-miterlimit:10;}
	.st34{clip-path:url(#SVGID_4_);}
	.st35{fill:#FFEAA5;}
	.st36{fill:#226B80;stroke:#FFFFFF;stroke-width:5;stroke-miterlimit:10;}
	.st37{fill:#FFEBD3;stroke:#FFFFFF;stroke-width:5;stroke-miterlimit:10;}
	.st38{fill:#40A798;stroke:#FFFFFF;stroke-width:5;stroke-miterlimit:10;}
	.st39{fill:#FFEAA5;stroke:#FFFFFF;stroke-width:5;stroke-miterlimit:10;}
	.st40{clip-path:url(#SVGID_6_);}
	.st41{fill:#6CBBB3;}
	.st42{fill:#60512D;}
	.st43{fill:#EFE784;}
	.st44{fill:#AE7C7C;}
	.st45{fill:#3E3838;}
	.st46{clip-path:url(#SVGID_8_);}
	.st47{fill:#6C5CE7;}
	.st48{fill:#FDCB6E;}
	.st49{fill:#47416D;}
	.st50{fill:#FFF3B1;}
	.st51{fill:#7B88FF;}
</style>
<rect x="-6.3" y="-6.2" class="st19" width="312.6" height="312.6"/>
<path class="st2" d="M164.8,188.8c-13.9-10-17.1-29.4-7.1-43.4c0.6-0.8,1.2-1.6,1.9-2.4c-1.8,1.5-3.4,3.3-4.8,5.3
	c-10,13.9-6.9,33.3,7.1,43.4c13.1,9.4,31,7.2,41.4-4.6C192.8,196.2,176.8,197.4,164.8,188.8z"/>
<ellipse transform="matrix(2.166780e-02 -0.9998 0.9998 2.166780e-02 14.6428 280.1956)" class="st2" cx="150.5" cy="132.6" rx="72.6" ry="68.1"/>
<path class="st12" d="M41.8,300c3.7-9.7,4.8-52.7,24.5-54.9c0.2,0,10.6-3.1,10.8-3.2c2.8-0.7,35.4-8.4,41.3-25.5
	c1.1-3.2,2.1-6.1,2.9-8.8c0.6-2.1,1.2-4.1,1.7-5.9c1-3.7,1.6-7.6,1.9-11.6c0.3-4.5-0.2-9-1.3-13.3c-1.6-6.7,54.7-6.7,53.1,0
	c-1.1,4.3-1.6,8.9-1.3,13.3c0.3,3.9,0.9,7.8,1.9,11.6c0.5,1.9,1,3.8,1.7,5.9c0.8,2.7,1.8,5.6,2.9,8.8c5.9,17.1,38.5,24.8,41.3,25.5
	c0.1,0,10.6,3.2,10.8,3.2c19.6,2.2,20.8,45.2,24.5,54.9H41.8z"/>
<circle class="st2" cx="149.2" cy="42.5" r="33.4"/>
<path class="st2" d="M160.4,66.8c-17.2,0-31.1-13.9-31.1-31.1c0-1,0.1-2.1,0.2-3.1c-0.5,2.3-0.8,4.6-0.8,7.1
	c0,17.2,13.9,31.1,31.1,31.1c16.1,0,29.4-12.3,30.9-28C187.5,56.5,175.2,66.8,160.4,66.8z"/>
<ellipse transform="matrix(0.1188 -0.9929 0.9929 0.1188 -21.1505 285.0202)" class="st15" cx="150" cy="154.4" rx="50.9" ry="47.5"/>
<ellipse transform="matrix(0.1188 -0.9929 0.9929 0.1188 -16.0173 280.4645)" class="st12" cx="150" cy="149.3" rx="50.9" ry="47.5"/>
<ellipse transform="matrix(0.9588 -0.2842 0.2842 0.9588 -23.4994 41.4985)" class="st2" cx="131.3" cy="101.7" rx="42.7" ry="28.4"/>
<path class="st13" d="M79.2,300h138.5l-3.5-47.4c3.5-3.3,6-7,7.8-10.9c-1.1-0.3-3.2-0.8-5.7-1.6c-9,17.5-29.7,29.5-67.9,29.5
	c-37.5,0-58.3-11.6-67.5-28.7c-2,0.6-3.4,0.9-3.9,1c0,0-0.8,0.2-1.9,0.6c1.8,3.6,4.2,7,7.5,10.1L79.2,300z"/>
<path class="st20" d="M41.8,300c3.7-9.7,15.2-55.8,34.8-58c0.2,0,0.3,0,0.4-0.1c2.8-0.7,35.4-8.4,41.3-25.5c1.1-3.2,2.1-6.1,2.9-8.8
	c0.6-2.1,1.2-4.1,1.7-5.9c1-3.7,1.6-7.6,1.9-11.6c0.3-4.5-0.2-9-1.3-13.3c-1.6-6.7,54.7-6.7,53.1,0c-1.1,4.3-1.6,8.9-1.3,13.3
	c0.3,3.9,0.9,7.8,1.9,11.6c0.5,1.9,1,3.8,1.7,5.9c0.8,2.7,1.8,5.6,2.9,8.8c5.9,17.1,38.5,24.8,41.3,25.5c0.1,0,0.3,0.1,0.4,0.1
	c19.6,2.2,31.1,48.3,34.8,58H41.8z"/>
</svg>
