<?xml version="1.0" encoding="utf-8"?>
<!-- Generator: Adobe Illustrator 23.0.0, SVG Export Plug-In . SVG Version: 6.00 Build 0)  -->
<svg version="1.1" id="图层_1" xmlns="http://www.w3.org/2000/svg" xmlns:xlink="http://www.w3.org/1999/xlink" x="0px" y="0px"
	 viewBox="0 0 300 300" style="enable-background:new 0 0 300 300;" xml:space="preserve">
<style type="text/css">
	.st0{fill:#FBE3C0;}
	.st1{fill:#57B894;}
	.st2{fill:#2F2E41;}
	.st3{fill:#9362AC;}
	.st4{fill:#F86D70;}
	.st5{fill:#424242;}
	.st6{fill:#DCDDDD;}
	.st7{fill:#606060;}
	.st8{fill:#F5A800;}
	.st9{fill:#545E60;}
	.st10{fill:#A6AAB2;}
	.st11{fill:#1C0D3A;}
	.st12{fill:#FBBEBE;}
	.st13{fill:#505ED0;}
	.st14{fill:#FFFFFF;}
	.st15{opacity:0.1;enable-background:new    ;}
	.st16{fill:#FFB338;}
	.st17{fill:#F0E4ED;}
	.st18{fill:none;stroke:#2F2E41;stroke-width:3;stroke-miterlimit:10;}
	.st19{fill:#7C8189;}
	.st20{clip-path:url(#SVGID_2_);fill:#505ED0;}
	.st21{fill:#F56A56;}
	.st22{fill:#FFFAEC;}
	.st23{fill:#605D55;}
	.st24{opacity:0.8;fill:#1C0D3A;}
	.st25{fill:#F7F8F8;}
	.st26{fill:#AD9A85;}
	.st27{fill:#7D6E5A;}
	.st28{clip-path:url(#SVGID_4_);}
	.st29{fill:#DB2D43;stroke:#F7F8F8;stroke-width:4;stroke-miterlimit:10;}
	.st30{fill:#87E5DA;stroke:#F7F8F8;stroke-width:4;stroke-miterlimit:10;}
	.st31{fill:#F7AA00;stroke:#F7F8F8;stroke-width:4;stroke-miterlimit:10;}
	.st32{fill:none;stroke:#F7F8F8;stroke-width:4;stroke-linecap:round;stroke-linejoin:round;stroke-miterlimit:10;}
	.st33{fill:#C7F2E3;stroke:#F7F8F8;stroke-width:4;stroke-miterlimit:10;}
	.st34{clip-path:url(#SVGID_6_);}
	.st35{fill:#FFEAA5;}
	.st36{fill:#226B80;stroke:#FFFFFF;stroke-width:5;stroke-miterlimit:10;}
	.st37{fill:#FFEBD3;stroke:#FFFFFF;stroke-width:5;stroke-miterlimit:10;}
	.st38{fill:#40A798;stroke:#FFFFFF;stroke-width:5;stroke-miterlimit:10;}
	.st39{fill:#FFEAA5;stroke:#FFFFFF;stroke-width:5;stroke-miterlimit:10;}
	.st40{clip-path:url(#SVGID_8_);}
	.st41{fill:#6CBBB3;}
	.st42{fill:#60512D;}
	.st43{fill:#EFE784;}
	.st44{fill:#AE7C7C;}
	.st45{fill:#3E3838;}
	.st46{clip-path:url(#SVGID_10_);}
	.st47{fill:#6C5CE7;}
	.st48{fill:#FDCB6E;}
	.st49{fill:#47416D;}
	.st50{fill:#FFF3B1;}
	.st51{fill:#7B88FF;}
</style>
<rect x="-7.1" y="-7.4" class="st10" width="314.7" height="314.7"/>
<ellipse transform="matrix(0.5797 -0.8149 0.8149 0.5797 -89.1651 148.7546)" class="st11" cx="99.6" cy="160.8" rx="43.4" ry="28.9"/>
<ellipse transform="matrix(0.9588 -0.2842 0.2842 0.9588 -61.5092 36.9052)" class="st11" cx="96.4" cy="230.4" rx="46.7" ry="40.9"/>
<ellipse transform="matrix(0.1905 -0.9817 0.9817 0.1905 14.8032 317.6682)" class="st11" cx="200" cy="149.9" rx="43.4" ry="28.9"/>
<ellipse transform="matrix(0.8569 -0.5154 0.5154 0.8569 -66.0347 130.4727)" class="st11" cx="202" cy="184.2" rx="28.9" ry="43.4"/>
<ellipse transform="matrix(0.7596 -0.6503 0.6503 0.7596 -95.5218 189.9958)" class="st11" cx="209.3" cy="224.2" rx="28.9" ry="43.4"/>
<path class="st11" d="M190.4,299.9h-86.7c-16,0-29-34-29-50.1v-136c0-37.1,30-67.1,67.1-67.1h10.7c37.1,0,67.1,30,67.1,67.1v136
	C219.4,265.9,206.4,299.9,190.4,299.9z"/>
<path class="st12" d="M38.6,299.9c3.8-9.9,15.1-53.5,35.1-55.8c0.2,0,0.7-3.3,0.8-3.3c2.8-0.7,36-8.6,42-25.9c1.1-3.2,2.1-6.2,2.9-9
	c0.6-2.1,1.2-4.1,1.7-6c1-3.8,1.6-7.7,1.9-11.7c0.3-4.6-0.2-9.2-1.3-13.6c-1.7-6.8,55.6-6.8,53.9,0c-1.1,4.4-1.6,9-1.3,13.6
	c0.3,4,0.9,7.9,1.9,11.7c0.5,1.9,1,3.9,1.7,6c0.8,2.8,1.8,5.7,2.9,9c6,17.4,39.1,25.2,42,25.9c0.2,0,4.4,4.9,4.5,4.9
	c20,2.2,27.6,44.3,31.3,54.1H38.6z"/>
<ellipse transform="matrix(0.1188 -0.9929 0.9929 0.1188 -19.9712 281.397)" class="st15" cx="148.5" cy="151.9" rx="51.7" ry="48.3"/>
<ellipse transform="matrix(0.1188 -0.9929 0.9929 0.1188 -14.7532 276.7661)" class="st12" cx="148.5" cy="146.7" rx="51.7" ry="48.3"/>
<ellipse transform="matrix(0.9588 -0.2842 0.2842 0.9588 -23.228 39.426)" class="st11" cx="124.3" cy="99.8" rx="46.1" ry="28.9"/>
<g>
	<g>
		<path class="st4" d="M153.8,299.9h104.7c-3.8-9.9-4.9-53.6-24.9-55.8c-0.2,0-10.8-3.2-11-3.2c-1.8-0.5-15.5-3.7-27-10.4
			L153.8,299.9z"/>
		<path class="st4" d="M101.5,230.4c-11.5,6.7-25.2,10-27,10.4c-0.2,0-10.8,3.2-11,3.2c-20,2.2-21.1,46-24.9,55.8h104.7L101.5,230.4
			z"/>
	</g>
</g>
<g>
	<defs>
		<rect id="SVGID_5_" x="330.4" y="608.2" width="562.6" height="414.6"/>
	</defs>
	<clipPath id="SVGID_2_">
		<use xlink:href="#SVGID_5_"  style="overflow:visible;"/>
	</clipPath>
	<g style="clip-path:url(#SVGID_2_);">
		
			<rect x="482.4" y="341.2" transform="matrix(0.7071 -0.7071 0.7071 0.7071 -286.959 712.7995)" class="st35" width="469" height="723.1"/>
	</g>
</g>
</svg>
