<?xml version="1.0" encoding="utf-8"?>
<!-- Generator: Adobe Illustrator 23.0.0, SVG Export Plug-In . SVG Version: 6.00 Build 0)  -->
<svg version="1.1" id="图层_1" xmlns="http://www.w3.org/2000/svg" xmlns:xlink="http://www.w3.org/1999/xlink" x="0px" y="0px"
	 viewBox="0 0 300 300" style="enable-background:new 0 0 300 300;" xml:space="preserve">
<style type="text/css">
	.st0{fill:#FBE3C0;}
	.st1{fill:#57B894;}
	.st2{fill:#2F2E41;}
	.st3{fill:#9362AC;}
	.st4{fill:#F86D70;}
	.st5{fill:#424242;}
	.st6{fill:#DCDDDD;}
	.st7{fill:#606060;}
	.st8{fill:#F5A800;}
	.st9{fill:#545E60;}
	.st10{fill:#A6AAB2;}
	.st11{fill:#1C0D3A;}
	.st12{fill:#FBBEBE;}
	.st13{fill:#505ED0;}
	.st14{fill:#FFFFFF;}
	.st15{opacity:0.1;enable-background:new    ;}
	.st16{fill:#FFB338;}
	.st17{fill:#F0E4ED;}
	.st18{fill:none;stroke:#2F2E41;stroke-width:3;stroke-miterlimit:10;}
	.st19{fill:#7C8189;}
	.st20{clip-path:url(#SVGID_2_);fill:#505ED0;}
	.st21{fill:#F56A56;}
	.st22{fill:#FFFAEC;}
	.st23{fill:#605D55;}
	.st24{opacity:0.8;fill:#1C0D3A;}
	.st25{fill:#F7F8F8;}
	.st26{fill:#AD9A85;}
	.st27{fill:#7D6E5A;}
	.st28{clip-path:url(#SVGID_4_);}
	.st29{fill:#DB2D43;stroke:#F7F8F8;stroke-width:4;stroke-miterlimit:10;}
	.st30{fill:#87E5DA;stroke:#F7F8F8;stroke-width:4;stroke-miterlimit:10;}
	.st31{fill:#F7AA00;stroke:#F7F8F8;stroke-width:4;stroke-miterlimit:10;}
	.st32{fill:none;stroke:#F7F8F8;stroke-width:4;stroke-linecap:round;stroke-linejoin:round;stroke-miterlimit:10;}
	.st33{fill:#C7F2E3;stroke:#F7F8F8;stroke-width:4;stroke-miterlimit:10;}
	.st34{clip-path:url(#SVGID_6_);}
	.st35{fill:#FFEAA5;}
	.st36{fill:#226B80;stroke:#FFFFFF;stroke-width:5;stroke-miterlimit:10;}
	.st37{fill:#FFEBD3;stroke:#FFFFFF;stroke-width:5;stroke-miterlimit:10;}
	.st38{fill:#40A798;stroke:#FFFFFF;stroke-width:5;stroke-miterlimit:10;}
	.st39{fill:#FFEAA5;stroke:#FFFFFF;stroke-width:5;stroke-miterlimit:10;}
	.st40{clip-path:url(#SVGID_8_);}
	.st41{fill:#6CBBB3;}
	.st42{fill:#60512D;}
	.st43{fill:#EFE784;}
	.st44{fill:#AE7C7C;}
	.st45{fill:#3E3838;}
	.st46{clip-path:url(#SVGID_10_);}
	.st47{fill:#6C5CE7;}
	.st48{fill:#FDCB6E;}
	.st49{fill:#47416D;}
	.st50{fill:#FFF3B1;}
	.st51{fill:#7B88FF;}
</style>
<rect x="-6.3" y="-4.8" class="st0" width="312.6" height="312.6"/>
<path class="st2" d="M204.7,114.8h-19.2V85.3c0-5.1,4.1-9.2,9.2-9.2h0.9c5.1,0,9.2,4.1,9.2,9.2V114.8z"/>
<circle class="st2" cx="181.1" cy="143.1" r="50.8"/>
<circle class="st2" cx="118.9" cy="143.1" r="50.8"/>
<circle class="st2" cx="142.6" cy="99.7" r="53"/>
<path class="st12" d="M40.2,300c3.8-9.9,4.9-53.5,24.9-55.8c0.2,0,10.8-3.2,11-3.2c2.8-0.7,35.9-8.6,41.9-25.9
	c1.1-3.2,2.1-6.2,2.9-8.9c0.6-2.1,1.2-4.1,1.7-6c1-3.8,1.6-7.7,1.9-11.7c0.3-4.6-0.2-9.1-1.3-13.5c-1.7-6.8,55.5-6.8,53.9,0
	c-1.1,4.4-1.6,9-1.3,13.5c0.3,4,0.9,7.9,1.9,11.7c0.5,1.9,1,3.9,1.7,6c0.8,2.8,1.8,5.7,2.9,8.9c6,17.3,39.1,25.2,41.9,25.9
	c0.2,0,10.8,3.2,11,3.2c19.9,2.2,21.1,45.9,24.9,55.8H40.2z"/>
<ellipse transform="matrix(0.1188 -0.9929 0.9929 0.1188 -8.5147 273.8062)" class="st15" cx="150" cy="141.7" rx="51.7" ry="48.2"/>
<ellipse transform="matrix(0.1188 -0.9929 0.9929 0.1188 -3.3029 269.1808)" class="st12" cx="150" cy="136.5" rx="51.7" ry="48.2"/>
<ellipse transform="matrix(0.9521 -0.3057 0.3057 0.9521 -22.5534 45.8411)" class="st2" cx="135.1" cy="94.9" rx="48.1" ry="29.2"/>
<polygon class="st25" points="154.8,298.8 190.6,298.8 190.6,218.6 154.8,241.9 "/>
<polygon class="st25" points="109.3,298.8 145,298.8 145,241.9 109.3,218.6 "/>
<g>
	<path class="st26" d="M260.4,300c-2.9-19-7-54-23.3-55.8c-0.2,0-11.1-3.2-11.2-3.2c-2.2-0.6-22.5-5.3-34.7-15.2L152.6,300H260.4z"
		/>
	<path class="st26" d="M147.4,300l-38.5-74.2c-12.2,9.9-32.5,14.6-34.7,15.2c-0.2,0-11.1,3.2-11.2,3.2C46.6,246,42.6,281,39.6,300
		H147.4z"/>
</g>
<polygon class="st27" points="88.7,268.7 134.3,300 137.2,300 99.6,268.2 111,261.2 92.9,240.9 105,228.6 108.5,225.8 86.5,241.1 
	103.2,260.3 "/>
<polygon class="st27" points="200.1,268.2 162.4,300 165.3,300 210.9,268.7 196.5,260.3 213.1,241.1 191.1,225.8 194.7,228.6 
	206.7,240.9 188.7,261.2 "/>
<g>
	<defs>
		<rect id="SVGID_5_" x="-309.6" y="608.2" width="562.6" height="414.6"/>
	</defs>
	<clipPath id="SVGID_2_">
		<use xlink:href="#SVGID_5_"  style="overflow:visible;"/>
	</clipPath>
	<g style="clip-path:url(#SVGID_2_);">
		
			<rect x="-157.6" y="341.2" transform="matrix(0.7071 -0.7071 0.7071 0.7071 -474.4106 260.2512)" class="st35" width="469" height="723.1"/>
	</g>
</g>
</svg>
