<?xml version="1.0" encoding="utf-8"?>
<!-- Generator: Adobe Illustrator 23.0.0, SVG Export Plug-In . SVG Version: 6.00 Build 0)  -->
<svg version="1.1" id="图层_1" xmlns="http://www.w3.org/2000/svg" xmlns:xlink="http://www.w3.org/1999/xlink" x="0px" y="0px"
	 viewBox="0 0 300 300" style="enable-background:new 0 0 300 300;" xml:space="preserve">
<style type="text/css">
	.st0{fill:#FBE3C0;}
	.st1{fill:#57B894;}
	.st2{fill:#2F2E41;}
	.st3{fill:#9362AC;}
	.st4{fill:#F86D70;}
	.st5{fill:#424242;}
	.st6{fill:#DCDDDD;}
	.st7{fill:#606060;}
	.st8{fill:#F5A800;}
	.st9{fill:#545E60;}
	.st10{fill:#A6AAB2;}
	.st11{fill:#1C0D3A;}
	.st12{fill:#FBBEBE;}
	.st13{fill:#505ED0;}
	.st14{fill:#FFFFFF;}
	.st15{opacity:0.1;enable-background:new    ;}
	.st16{fill:#FFB338;}
	.st17{fill:#F0E4ED;}
	.st18{fill:none;stroke:#2F2E41;stroke-width:3;stroke-miterlimit:10;}
	.st19{fill:#7C8189;}
	.st20{clip-path:url(#SVGID_2_);fill:#505ED0;}
	.st21{fill:#F56A56;}
	.st22{fill:#FFFAEC;}
	.st23{fill:#605D55;}
	.st24{opacity:0.8;fill:#1C0D3A;}
	.st25{fill:#F7F8F8;}
	.st26{fill:#AD9A85;}
	.st27{fill:#7D6E5A;}
	.st28{clip-path:url(#SVGID_4_);}
	.st29{fill:#DB2D43;stroke:#F7F8F8;stroke-width:4;stroke-miterlimit:10;}
	.st30{fill:#87E5DA;stroke:#F7F8F8;stroke-width:4;stroke-miterlimit:10;}
	.st31{fill:#F7AA00;stroke:#F7F8F8;stroke-width:4;stroke-miterlimit:10;}
	.st32{fill:none;stroke:#F7F8F8;stroke-width:4;stroke-linecap:round;stroke-linejoin:round;stroke-miterlimit:10;}
	.st33{fill:#C7F2E3;stroke:#F7F8F8;stroke-width:4;stroke-miterlimit:10;}
	.st34{clip-path:url(#SVGID_6_);}
	.st35{fill:#FFEAA5;}
	.st36{fill:#226B80;stroke:#FFFFFF;stroke-width:5;stroke-miterlimit:10;}
	.st37{fill:#FFEBD3;stroke:#FFFFFF;stroke-width:5;stroke-miterlimit:10;}
	.st38{fill:#40A798;stroke:#FFFFFF;stroke-width:5;stroke-miterlimit:10;}
	.st39{fill:#FFEAA5;stroke:#FFFFFF;stroke-width:5;stroke-miterlimit:10;}
	.st40{clip-path:url(#SVGID_8_);}
	.st41{fill:#6CBBB3;}
	.st42{fill:#60512D;}
	.st43{fill:#EFE784;}
	.st44{fill:#AE7C7C;}
	.st45{fill:#3E3838;}
	.st46{clip-path:url(#SVGID_10_);}
	.st47{fill:#6C5CE7;}
	.st48{fill:#FDCB6E;}
	.st49{fill:#47416D;}
	.st50{fill:#FFF3B1;}
	.st51{fill:#7B88FF;}
</style>
<rect x="-6.6" y="-5.3" class="st1" width="313.5" height="313.5"/>
<ellipse class="st3" cx="150.1" cy="214.3" rx="64.3" ry="34"/>
<ellipse class="st2" cx="150.1" cy="97.2" rx="48.7" ry="59.6"/>
<rect x="116.2" y="154.7" class="st12" width="67.9" height="100.1"/>
<path class="st15" d="M184,145.6h8.9v-41.8c0-19.1-15.5-34.7-34.7-34.7h-18c-19.1,0-34.7,15.5-34.7,34.7v41.8h10.6v52.8
	c6.2,6,14.7,9.7,24,9.7h18c10.3,0,19.5-4.5,25.8-11.6V145.6z"/>
<path class="st12" d="M166.1,201.3h-32.1c-15.3,0-27.6-12.4-27.6-27.6V89.8c0-15.3,12.4-27.6,27.6-27.6h32.1
	c15.3,0,27.6,12.4,27.6,27.6v83.8C193.8,188.9,181.4,201.3,166.1,201.3z"/>
<g>
	<path class="st12" d="M190.5,145.6c1.5,7.3,12.1,7.5,13.6,0.2c0,0,0-0.1,0-0.1c0.6-3,3.9-11.7,4.7-15.3c2-8.8-1.2-17.6-11.7-17.2
		c-3.1,0.1-5.8,2.5-6.4,5.6l-2.7,12.6c-0.2,0.9-0.2,1.9,0,2.9L190.5,145.6z"/>
	<path class="st12" d="M108.4,151.7c-6.8,2.3-11.5-1.3-12.4-6c-0.6-3-3.9-11.7-4.7-15.3c-2.3-10.2,2.4-20.4,17.1-16.3l4.3,18.7
		L108.4,151.7z"/>
</g>
<path class="st3" d="M210.8,216h-25.7c-2.8,12.5-17.5,33-35.2,33c-17.7,0-32.4-20.5-35.2-33H89.4c-40.9,0-74,43.1-74,84v0h269.4v0
	C284.8,259.1,251.6,216,210.8,216z"/>
<path class="st14" d="M162.6,297.4c-1.1,0-2-0.9-2-2v-32.7c0-1.1,0.9-2,2-2s2,0.9,2,2v32.7C164.6,296.5,163.7,297.4,162.6,297.4z"/>
<path class="st14" d="M142.2,262.7c0-1.1-0.9-2-2-2s-2,0.9-2,2V300h4V262.7z"/>
<rect x="161.7" y="297.2" class="st14" width="2" height="2.8"/>
<g>
	<defs>
		<rect id="SVGID_5_" x="10.4" y="608.2" width="562.6" height="414.6"/>
	</defs>
	<clipPath id="SVGID_2_">
		<use xlink:href="#SVGID_5_"  style="overflow:visible;"/>
	</clipPath>
	<g style="clip-path:url(#SVGID_2_);">
		
			<rect x="162.4" y="341.2" transform="matrix(0.7071 -0.7071 0.7071 0.7071 -380.6848 486.5253)" class="st35" width="469" height="723.1"/>
	</g>
</g>
</svg>
